<?xml version="1.0" encoding="iso-8859-1"?>
<!-- Generator: Adobe Illustrator 19.0.0, SVG Export Plug-In . SVG Version: 6.00 Build 0)  -->
<svg version="1.1" id="Capa_1" xmlns="http://www.w3.org/2000/svg" xmlns:xlink="http://www.w3.org/1999/xlink" x="0px" y="0px"
	 viewBox="0 0 512 512" style="enable-background:new 0 0 512 512;" xml:space="preserve">
<path style="fill:#CCDFED;" d="M196.077,302.283H53.754c-3.63,0-6.574-2.943-6.574-6.574V250.42c0-3.63,2.943-6.574,6.574-6.574
	h142.323V302.283z"/>
<g>
	<path style="fill:#FF4C4C;" d="M163.066,498.383h-46.18c-14.748,0-26.703-11.955-26.703-26.703V74.451
		c0-14.748,11.955-26.703,26.703-26.703h46.18c14.748,0,26.703,11.955,26.703,26.703V471.68
		C189.769,486.428,177.814,498.383,163.066,498.383z"/>
	<path style="fill:#FF4C4C;" d="M262.653,498.383h-46.18c-14.748,0-26.703-11.955-26.703-26.703V74.451
		c0-14.748,11.955-26.703,26.703-26.703h46.18c14.748,0,26.703,11.955,26.703,26.703V471.68
		C289.356,486.428,277.4,498.383,262.653,498.383z"/>
	<path style="fill:#FF4C4C;" d="M362.239,498.383h-46.18c-14.748,0-26.703-11.955-26.703-26.703V74.451
		c0-14.748,11.955-26.703,26.703-26.703h46.18c14.748,0,26.703,11.955,26.703,26.703V471.68
		C388.943,486.428,376.987,498.383,362.239,498.383z"/>
	<path style="fill:#FF4C4C;" d="M461.826,498.383h-46.18c-14.748,0-26.703-11.955-26.703-26.703V74.451
		c0-14.748,11.955-26.703,26.703-26.703h46.18c14.748,0,26.703,11.955,26.703,26.703V471.68
		C488.529,486.428,476.574,498.383,461.826,498.383z"/>
</g>
<g>
	<path style="fill:#ED3737;" d="M461.826,47.748h-41.509c14.748,0,26.703,11.955,26.703,26.703V471.68
		c0,14.748-11.955,26.703-26.703,26.703h41.509c14.748,0,26.703-11.955,26.703-26.703V74.451
		C488.529,59.703,476.574,47.748,461.826,47.748z"/>
	<path style="fill:#ED3737;" d="M362.239,47.748H320.73c14.748,0,26.703,11.955,26.703,26.703V471.68
		c0,14.748-11.955,26.703-26.703,26.703h41.509c14.748,0,26.703-11.955,26.703-26.703V74.451
		C388.943,59.703,376.987,47.748,362.239,47.748z"/>
	<path style="fill:#ED3737;" d="M262.653,47.748h-41.509c14.748,0,26.703,11.955,26.703,26.703V471.68
		c0,14.748-11.955,26.703-26.703,26.703h41.509c14.748,0,26.703-11.955,26.703-26.703V74.451
		C289.356,59.703,277.4,47.748,262.653,47.748z"/>
	<path style="fill:#ED3737;" d="M163.138,47.748h-41.509c14.748,0,26.703,11.955,26.703,26.703V471.68
		c0,14.748-11.955,26.703-26.703,26.703h41.509c14.748,0,26.703-11.955,26.703-26.703V74.451
		C189.841,59.703,177.886,47.748,163.138,47.748z"/>
</g>
<path style="fill:#DFEAEF;" d="M499.581,357.428H79.131c-2.614,0-4.733-2.119-4.733-4.733V193.436c0-2.614,2.119-4.733,4.733-4.733
	h420.45c2.614,0,4.733,2.119,4.733,4.733v159.259C504.314,355.309,502.195,357.428,499.581,357.428z"/>
<path style="fill:#BFCFD6;" d="M499.581,188.703h-41.576c2.614,0,4.733,2.119,4.733,4.733v159.259c0,2.614-2.119,4.733-4.733,4.733
	h41.576c2.614,0,4.733-2.119,4.733-4.733V193.436C504.314,190.822,502.195,188.703,499.581,188.703z"/>
<path style="fill:#21D8DE;" d="M104.263,322.416v-98.7c0-2.843,2.305-5.148,5.148-5.148h359.892c2.843,0,5.148,2.305,5.148,5.148
	v98.7c0,2.843-2.305,5.148-5.148,5.148H109.41C106.567,327.563,104.263,325.259,104.263,322.416z"/>
<path style="fill:#11B9C1;" d="M469.302,218.568h-41.584c2.843,0,5.147,2.305,5.147,5.147v98.701c0,2.843-2.305,5.147-5.147,5.147
	h41.584c2.843,0,5.148-2.305,5.148-5.147v-98.701C474.449,220.872,472.145,218.568,469.302,218.568z"/>
<path d="M200.343,236.051c-12.771-0.223-22.744,5.603-23.026,21.76l-0.471,26.993c-0.282,16.157,9.481,22.328,22.253,22.55
	c12.771,0.223,22.841-5.601,23.122-21.759l0.471-26.992C222.974,242.446,213.113,236.273,200.343,236.051z M209.643,285.376
	c-0.133,7.643-4.064,11.058-10.353,10.949c-6.385-0.112-10.001-3.658-9.867-11.302l0.47-26.993
	c0.134-7.643,3.871-11.062,10.256-10.95c6.289,0.11,10.098,3.66,9.965,11.303L209.643,285.376z"/>
<path d="M253.129,263.04l-7.45-0.13l1.44-15.943l21.768,0.38c2.515,0.044,3.82-2.643,3.869-5.449
	c0.048-2.709-1.161-5.536-3.677-5.58l-29.799-0.52c-1.451-0.026-2.252,1.509-2.488,3.924l-2.959,25.401
	c-0.015,0.871-0.127,1.74-0.14,2.514c-0.053,2.999,0.978,4.952,4.944,5.022l14.319,0.25c6.289,0.11,10.098,3.66,9.969,11.013
	l-0.032,1.838c-0.128,7.353-4.057,10.671-10.442,10.56c-5.611-0.098-9.92-2.786-9.837-7.527c0.047-2.709-0.883-4.854-6.204-4.947
	c-3.967-0.07-6.311,1.148-6.389,5.598c-0.157,8.998,7.725,17.651,22.528,17.91c12.48,0.218,22.645-5.508,22.922-21.375l0.032-1.838
	C275.769,268.952,265.9,263.263,253.129,263.04z"/>
<path d="M290.467,250.985c-3.773-0.066-6.631,2.884-6.693,6.464c-0.061,3.483,2.691,6.628,6.464,6.694
	c3.483,0.061,6.536-2.983,6.597-6.466C296.897,254.098,293.951,251.046,290.467,250.985z"/>
<path d="M289.975,279.236c-3.774-0.066-6.631,2.884-6.694,6.464c-0.061,3.483,2.691,6.628,6.464,6.694
	c3.483,0.061,6.536-2.983,6.597-6.466C296.404,282.348,293.458,279.297,289.975,279.236z"/>
<path d="M340.373,269.645c4.78-2.143,7.693-8.286,7.827-15.929c0.224-12.868-8.406-17.47-20.112-17.674
	c-16.351-0.285-21.362,9.596-21.482,16.464c-0.071,4.063,0.777,5.433,6.388,5.531c4.644,0.081,6.032-1.83,6.083-4.733
	c0.067-3.87,2.435-6.442,8.724-6.331c5.224,0.091,8.477,2.277,8.365,8.662c-0.145,8.321-4.228,9.41-9.066,9.326
	c-2.806-0.049-3.817,2.45-3.859,4.868c-0.044,2.515,0.881,4.951,3.687,5c6.192,0.108,10.606,2.218,10.481,9.377l-0.032,1.838
	c-0.128,7.353-3.278,10.395-10.534,10.268c-6.192-0.108-10.014-2.885-9.938-7.238c0.054-3.096-1.277-4.474-6.405-4.564
	c-4.353-0.076-6.017,0.959-6.085,4.829c-0.136,7.837,6.079,17.719,21.945,17.997c12.771,0.223,23.322-5.496,23.595-21.073
	l0.032-1.838C350.126,276.395,346.042,271.969,340.373,269.645z"/>
<path d="M382.603,236.051c-12.771-0.223-22.744,5.603-23.026,21.76l-0.471,26.993c-0.282,16.157,9.481,22.328,22.253,22.55
	c12.771,0.223,22.841-5.601,23.122-21.759l0.471-26.992C405.234,242.446,395.373,236.273,382.603,236.051z M391.903,285.376
	c-0.133,7.643-4.064,11.058-10.353,10.949c-6.385-0.112-10.001-3.658-9.867-11.302l0.47-26.993
	c0.134-7.643,3.871-11.062,10.256-10.95c6.289,0.11,10.098,3.66,9.965,11.303L391.903,285.376z"/>
<path d="M499.581,181.017h-3.366V74.451c0-18.962-15.427-34.39-34.39-34.39h-15.778C443.418,20.813,426.88,5.93,406.922,5.93h-35.96
	c-13.038,0-24.616,6.353-31.814,16.122C331.95,12.283,320.372,5.93,307.335,5.93h-35.96c-13.037,0-24.615,6.353-31.813,16.122
	c-7.198-9.769-18.776-16.122-31.814-16.122h-35.96c-19.958,0-36.496,14.882-39.125,34.131h-15.778
	c-18.962,0-34.39,15.427-34.39,34.39v16.91c-1.1-0.28-2.213-0.591-3.155-0.854c-7.665-2.139-18.16-5.069-27.35,0.87
	c-9.864,6.374-10.725,13.702-11.354,19.053c-0.294,2.503-0.529,4.503-1.624,6.603c-0.904,0.426-3.326,0.786-4.968,1.03
	c-5.932,0.882-15.86,2.357-20.305,12.742c-4.764,11.13-0.873,19.321,1.701,24.741c2.191,4.612,2.642,6.034,1.683,8.342
	c-1.025,2.467-2.46,3.424-5.351,5.187C7.085,171.933,0,176.253,0,189.533c0,11.47,5.944,17.891,10.284,22.58
	c3.704,4.002,5.642,6.282,5.743,10.42c0.077,3.194-0.638,4.337-2.549,7.391c-2.121,3.389-5.025,8.03-6.918,16.393
	c-1.904,8.41,0.092,17.096,5.473,23.833c5.383,6.737,13.416,10.601,22.04,10.601h5.422v14.958c0,7.863,6.397,14.26,14.26,14.26
	h12.957v42.726c0,6.848,5.571,12.419,12.419,12.419h3.366V471.68c0,18.962,15.427,34.39,34.39,34.39h46.18
	c10.769,0,20.393-4.979,26.703-12.752c6.31,7.773,15.934,12.752,26.703,12.752h46.18c10.769,0,20.393-4.979,26.703-12.752
	c6.31,7.773,15.934,12.752,26.703,12.752h46.18c10.769,0,20.393-4.979,26.703-12.752c6.31,7.773,15.935,12.752,26.703,12.752h46.18
	c18.962,0,34.39-15.427,34.39-34.39V365.114h3.366c6.848,0,12.419-5.571,12.419-12.419V193.436
	C512,186.588,506.429,181.017,499.581,181.017z M370.963,21.303h35.96c11.458,0,21.07,8.032,23.518,18.759h-14.794
	c-10.769,0-20.393,4.979-26.703,12.752c-6.31-7.773-15.934-12.752-26.703-12.752h-14.795
	C349.893,29.334,359.504,21.303,370.963,21.303z M362.239,55.433c10.486,0,19.017,8.531,19.017,19.018v34.667
	c0,4.245,3.441,7.686,7.686,7.686s7.686-3.441,7.686-7.686V74.451c0-10.486,8.531-19.018,19.018-19.018h46.18
	c10.486,0,19.017,8.531,19.017,19.018v106.566h-84.215v-36.133c0-4.245-3.441-7.686-7.686-7.686s-7.686,3.441-7.686,7.686v36.133
	h-84.214V74.451c0-10.486,8.531-19.018,19.017-19.018H362.239z M271.376,21.303h35.96c11.458,0,21.069,8.032,23.517,18.759h-14.794
	c-10.769,0-20.393,4.979-26.703,12.752c-6.31-7.773-15.934-12.752-26.703-12.752h-14.795
	C250.306,29.334,259.918,21.303,271.376,21.303z M262.653,55.433c10.486,0,19.017,8.531,19.017,19.018v106.566h-84.214V74.451
	c0-10.486,8.531-19.018,19.017-19.018H262.653z M171.789,21.303h35.96c11.458,0,21.07,8.032,23.518,18.759h-14.794
	c-10.769,0-20.393,4.979-26.703,12.752c-6.31-7.773-15.935-12.752-26.703-12.752h-14.795
	C150.719,29.334,160.331,21.303,171.789,21.303z M97.868,74.451c0-10.486,8.531-19.018,19.018-19.018h46.18
	c10.486,0,19.018,8.531,19.018,19.018v106.566H97.868V74.451z M66.712,294.597H54.867v-43.063h11.845V294.597z M66.712,193.436
	v42.725H53.754c-7.863,0-14.26,6.397-14.26,14.26v14.958h-5.422c-3.925,0-7.58-1.758-10.03-4.824
	c-2.449-3.065-3.357-7.017-2.49-10.844c1.317-5.816,3.167-8.773,4.956-11.633c2.378-3.801,5.074-8.109,4.885-15.917
	c-0.246-10.138-5.559-15.878-9.829-20.491c-4.069-4.396-6.193-6.932-6.193-12.137c0-4.649,0.759-5.111,4.404-7.334
	c3.61-2.201,8.553-5.215,11.544-12.414c3.688-8.876,0.404-15.788-1.994-20.835c-2.356-4.96-3.402-7.546-1.454-12.096
	c0.926-2.164,2.726-2.738,8.433-3.586c5.184-0.771,12.284-1.826,15.982-8.467c2.71-4.867,3.234-9.323,3.616-12.576
	c0.495-4.218,0.645-5.491,4.429-7.936c3.379-2.183,9.224-0.552,14.875,1.025c2.414,0.674,4.86,1.352,7.287,1.773v73.93H79.13
	C72.283,181.017,66.712,186.588,66.712,193.436z M281.67,471.68c0,10.486-8.531,19.018-19.017,19.018h-46.18
	c-10.486,0-19.017-8.531-19.017-19.018v-34.527c0-4.245-3.441-7.686-7.686-7.686c-4.245,0-7.686,3.441-7.686,7.686v34.527
	c0,10.486-8.531,19.018-19.018,19.018h-46.18c-10.486,0-19.018-8.531-19.018-19.018V365.114h84.215v35.658
	c0,4.245,3.441,7.686,7.686,7.686c4.245,0,7.686-3.441,7.686-7.686v-35.658h84.214V471.68H281.67z M381.256,471.68
	c0,10.486-8.531,19.018-19.017,19.018h-46.18c-10.486,0-19.017-8.531-19.017-19.018V365.114h84.214V471.68z M480.843,471.68
	c0,10.486-8.531,19.018-19.017,19.018h-46.18c-10.486,0-19.018-8.531-19.018-19.018V365.114h84.215V471.68z M496.628,349.742H82.084
	l0,0V196.389l0,0h414.544V349.742z"/>
<path d="M109.41,335.249h359.892c7.077,0,12.834-5.757,12.834-12.834v-98.7c0-7.077-5.757-12.834-12.834-12.834H109.41
	c-7.077,0-12.834,5.757-12.834,12.834v98.7C96.576,329.492,102.333,335.249,109.41,335.249z M111.948,226.254h354.815v93.623
	H111.948V226.254z"/>
<g>
</g>
<g>
</g>
<g>
</g>
<g>
</g>
<g>
</g>
<g>
</g>
<g>
</g>
<g>
</g>
<g>
</g>
<g>
</g>
<g>
</g>
<g>
</g>
<g>
</g>
<g>
</g>
<g>
</g>
</svg>
